[img]http://a.imageshack.us/img641/797/liltwist.png[/img]

[img]http://a.imageshack.us/img718/8516/liltwist2.png[/img]

[code]General
Complete name                    : Lil Twist and Lil Chuckee - Girl I Got You [KingPinVideos].mpg
Format                           : MPEG-PS
File size                        : 80.4 MiB
Duration                         : 4mn 0s
Overall bit rate                 : 2 806 Kbps
Writing library                  : encoded by TMPGEnc 4.0 XPress Version. 4.7.4.299

Video
ID                               : 224 (0xE0)
Format                           : MPEG Video
Format version                   : Version 1
Format settings, BVOP            : Yes
Format settings, Matrix          : Default
Duration                         : 4mn 0s
Bit rate mode                    : Constant
Bit rate                         : 2 567 Kbps
Nominal bit rate                 : 2 650 Kbps
Width                            : 384 pixels
Height                           : 208 pixels
Display aspect ratio             : 16:9
Frame rate                       : 29.970 fps
Resolution                       : 8 bits
Scan type                        : Progressive
Bits/(Pixel*Frame)               : 1.072
Stream size                      : 73.5 MiB (91%)
Writing library                  : TMPGEnc XPress 4.7.4.299

Audio
ID                               : 192 (0xC0)
Format                           : MPEG Audio
Format version                   : Version 1
Format profile                   : Layer 2
Duration                         : 4mn 0s
Bit rate mode                    : Constant
Bit rate                         : 128 Kbps
Channel(s)                       : 2 channels
Sampling rate                    : 48.0 KHz
Stream size                      : 3.67 MiB (5%)

[/code]

Get The Best and The Fresh @KingPinVideos.com 
